<?xml version="1.0" encoding="UTF-8"?>
<svg id="Layer_1" xmlns="http://www.w3.org/2000/svg" version="1.1" viewBox="0 0 800 800">
  <!-- Generator: Adobe Illustrator 29.1.0, SVG Export Plug-In . SVG Version: 2.1.0 Build 142)  -->
  <defs>
    <style>
      .st0 {
        fill: #e9e626;
      }
    </style>
  </defs>
  <path class="st0" d="M421.5,355.6c14,0,26-10,28.6-23.9,3-15.9-7.4-31.3-23.2-34.2-1.8-.3-3.6-.5-5.4-.5-14,0-26,10-28.6,23.9-3,15.9,7.4,31.2,23.2,34.2,1.8.3,3.6.5,5.5.5Z"/>
  <path class="st0" d="M484.1,261.9h-22.9s0,0,0,0l-12.8,12.8c4.9,2.6,9.4,5.8,13.3,9.6l22.5-22.6Z"/>
  <path class="st0" d="M383.6,282.4l-19.4-19.4h-22.9l9.2,9.2c10.1,3.4,19.1,9.5,26,17.5,2.2-2.7,4.5-5.1,7.1-7.3Z"/>
  <path class="st0" d="M319.3,555.2h132.1v-160.3h-132.1v160.3ZM385.3,409.4c21,0,38.2,17.2,38.2,38.3s-9.9,29.7-23.8,35.5v37.6c0,7.9-6.4,14.4-14.4,14.4s-14.4-6.4-14.4-14.4v-37.6c-13.9-5.7-23.8-19.4-23.8-35.5,0-21.1,17.1-38.3,38.2-38.3Z"/>
  <path class="st0" d="M90.3,451v209.4h590v-209.4h-200.2v109c0,13.2-10.7,24-24,24h-141.7c-13.2,0-24-10.7-24-24v-109H90.3Z"/>
  <polygon class="st0" points="427 199.7 460.4 233.2 460.4 233.2 460.4 233.2 483.4 233.2 427 176.7 427 199.7"/>
  <path class="st0" d="M362.9,234.2c.1-.1.2-.3.4-.4l34.8-34.8s0,0,.1-.1v-22.9l-58.2,58.3h22.9Z"/>
  <path class="st0" d="M326.7,298.6c-15.8,3.2-26,18.7-22.8,34.5,2.7,13.6,14.7,23.5,28.5,23.5s3.9-.2,5.8-.6c15.8-3.2,26-18.7,22.8-34.5-2.7-13.6-14.7-23.5-28.5-23.5-1.9,0-3.9.2-5.8.6Z"/>
  <path class="st0" d="M389.8,247.9l21.2,21.2c.9-.2,1.8-.3,2.7-.4l20.8-20.8-22.4-22.4-22.4,22.4Z"/>
  <polygon class="st0" points="678.2 253.7 699 221.8 657.5 221.8 678.2 253.7"/>
  <polygon class="st0" points="128.4 763.8 128.4 763.8 128.4 745.4 71.7 745.4 71.7 763.8 128.4 763.8"/>
  <path class="st0" d="M520.1,334.2c-4.7-3-10.1-4.7-15.7-4.7-10,0-19.1,5-24.5,13.4-4.6,7.1-5.6,15.5-3.7,23.1h56.4c3-11.9-1.6-24.9-12.5-31.9Z"/>
  <polygon class="st0" points="697.3 283.1 697.3 283.1 757.6 283.1 725.5 233.7 695.4 280.1 697.3 283.1"/>
  <path class="st0" d="M579.9,366.1l-17.6-54.2h-24c17.5,12.7,26,33.8,23.5,54.2h18.1Z"/>
  <path class="st0" d="M385.3,457.3c5.2,0,9.4-4.3,9.4-9.6,0-5.3-4.2-9.6-9.4-9.6s-9.4,4.3-9.4,9.6c0,5.3,4.2,9.6,9.4,9.6Z"/>
  <polygon class="st0" points="148.6 220.8 156.5 257.9 185.7 228.7 148.6 220.8"/>
  <polygon class="st0" points="105.2 247.4 125.8 251.8 121.4 231.2 105.2 247.4"/>
  <polygon class="st0" points="67.6 285 51.3 301.3 72 305.6 67.6 285"/>
  <polygon class="st0" points="88.9 366.1 113.1 366.1 97.1 358 88.9 366.1"/>
  <polygon class="st0" points="78.1 336.3 41 328.4 48.8 365.5 78.1 336.3"/>
  <path class="st0" d="M480.1,422.3h205c13.2,0,24,10.7,24,24v219c0,13.2-10.7,24-24,24H85.5c-13.2,0-24-10.7-24-24v-219c0-13.2,10.7-24,24-24h205v-27.4H34.5v321.8h701.7v-321.8h-256.1v27.4Z"/>
  <polygon class="st0" points="566.5 280.1 536.4 233.7 504.3 283.1 504.3 283.1 564.6 283.1 566.5 280.1"/>
  <polygon class="st0" points="94.8 274.6 102.7 311.7 131.9 282.5 94.8 274.6"/>
  <rect class="st0" x="642.2" y="745.4" width="56.6" height="18.4"/>
  <path class="st0" d="M688.8,345.4c-2,6.1-7.6,9.9-13.7,9.9s-3-.2-4.4-.7c-7.5-2.4-11.7-10.6-9.2-18.1l8-24.6h-76.9l17.6,54.2h99.6l44.2-54.2h-54.3l-10.9,33.5Z"/>
  <rect class="st0" x="304.3" y="43" width="162" height="16.4"/>
  <polygon class="st0" points="659.1 283.1 661.1 280.1 630.9 233.7 600.8 280.1 602.8 283.1 659.1 283.1"/>
  <path class="st0" d="M266.8,190.7c4.7-9.8,10.8-15.9,20.6-20.6-9.8-4.7-15.9-10.8-20.6-20.6-4.7,9.8-10.8,15.9-20.6,20.6,9.8,4.7,15.9,10.8,20.6,20.6Z"/>
  <polygon class="st0" points="604.4 221.8 562.9 221.8 583.7 253.7 604.4 221.8"/>
  <path class="st0" d="M250.4,332.6c-5.7,0-11.2,1.7-16,4.8-9.7,6.5-14.3,17.8-12.8,28.7h57.6c1-6.9-.4-14.2-4.5-20.4-5.4-8.2-14.5-13.1-24.3-13.1Z"/>
  <path class="st0" d="M187,325.9c5.5-2.8,12-1.7,16.3,2.3,2.1-2.9,4.4-5.7,7.1-8.2l-7-68.3-25.3,25.3,12,23.4c3.6,7.1.8,15.7-6.3,19.3-2.1,1.1-4.3,1.6-6.5,1.6-5.2,0-10.3-2.9-12.8-7.8l-7.7-15.1-38.3,38.3,57.9,29.5h15.1l-10.7-20.9c-3.6-7.1-.8-15.7,6.3-19.3Z"/>
  <path class="st0" d="M133.9,188.9c1.8,0,3.7.2,5.5.6l69.5,14.8c11.3,2.4,19.7,11.7,20.9,23.3l8,77.7c4.1-.9,8.3-1.4,12.6-1.4,9.5,0,18.6,2.3,26.8,6.6,5.1-16.6,17.4-30.4,34-37l-7.4-7.4c-4.8-4.8-7.5-11.2-7.5-18.1s2.7-13.2,7.5-18.1l90.4-90.5c4.8-4.8,11.2-7.5,18.1-7.5s13.2,2.7,18.1,7.5l80.7,80.7,8.9-13.7c5.4-8.3,14.5-13.3,24.4-13.3h144.9v-105H81.4v142.4l34-34c4.9-4.9,11.5-7.7,18.5-7.7ZM219.3,149.2c20.3-5.6,21.1-6.3,26.7-26.6,2.6-9.4,11.2-15.9,20.9-15.9s18.3,6.5,20.9,15.9c5.6,20.2,6.4,21,26.7,26.6,9.4,2.6,15.9,11.2,15.9,20.9,0,9.7-6.5,18.3-15.9,20.9-20.3,5.6-21.1,6.3-26.7,26.6-2.6,9.4-11.2,15.9-20.9,15.9s-18.3-6.5-20.9-15.9c-5.6-20.2-6.4-21-26.7-26.6-9.4-2.6-16-11.2-16-20.9s6.6-18.3,16-20.9Z"/>
  <path d="M219.3,191c20.3,5.6,21.1,6.3,26.7,26.6,2.6,9.4,11.2,15.9,20.9,15.9s18.3-6.5,20.9-15.9c5.6-20.2,6.4-21,26.7-26.6,9.4-2.6,15.9-11.2,15.9-20.9,0-9.7-6.6-18.3-15.9-20.9-20.3-5.6-21.1-6.3-26.7-26.6-2.6-9.4-11.2-15.9-20.9-15.9s-18.3,6.5-20.9,15.9c-5.6,20.2-6.3,21-26.7,26.6-9.4,2.6-16,11.2-16,20.9s6.6,18.3,16,20.9ZM266.8,149.5c4.7,9.8,10.8,15.9,20.6,20.6-9.8,4.7-15.9,10.8-20.6,20.6-4.7-9.8-10.8-15.9-20.6-20.6,9.8-4.7,15.9-10.8,20.6-20.6Z"/>
  <path d="M370.9,483.2v37.6c0,7.9,6.4,14.4,14.4,14.4s14.4-6.4,14.4-14.4v-37.6c13.9-5.7,23.8-19.4,23.8-35.5s-17.1-38.3-38.2-38.3-38.2,17.2-38.2,38.3c0,16,9.9,29.7,23.8,35.5ZM385.3,438.2c5.2,0,9.4,4.3,9.4,9.6,0,5.3-4.2,9.6-9.4,9.6s-9.4-4.3-9.4-9.6c0-5.3,4.2-9.6,9.4-9.6Z"/>
  <path d="M16.7,295.2c-6.3,6.3-8.9,15.3-7.1,24l10.4,48.9c-8.4,3.7-14.3,12.1-14.3,21.9v331.3c0,13.2,10.7,24,24,24h1v-464l-13.9,13.9Z"/>
  <path d="M790.2,280.4l-23.8-36.6v98.3l22-27c8.1-10,8.9-23.9,1.9-34.7Z"/>
  <path d="M97,768.6c0,5.3,4.3,9.6,9.6,9.6h-39.6c-5.3,0-9.6-4.3-9.6-9.6v-1.3h-14.4v1.3c0,13.2,10.7,24,24,24h66.2c13.2,0,24-10.7,24-24v-1.3h-60.2v1.3Z"/>
  <path d="M613.5,768.6c0,13.2,10.7,24,24,24h66.2c13.2,0,24-10.7,24-24v-1.3h-114.1v1.3Z"/>
  <path d="M471.1,14.3h-171.6c-12.6,0-22.9,9.7-23.9,22h219.3c-1-12.3-11.3-22-23.9-22Z"/>
  <path d="M742,206.4c-5.4-8.2-14.4-13.2-24.1-13.3v-109.8c0-13.2-10.7-24-24-24h-198.9v-21.1c0-.6,0-1.3,0-1.9h-219.3c0,.6,0,1.3,0,1.9v21.1H76.7c-13.2,0-24,10.7-24,24v175.9l-22.1,22.1v464h12.4v21.9h14.4v-36.3h39.6v14.4h31.4v18.4h-31.4v3.5h60.2v-21.9h456.3v21.9h114.1v-21.9h13.3c13.2,0,24-10.7,24-24v-331.3c0-11.4-8-20.9-18.6-23.3l20.1-24.7v-98.3l-24.3-37.4ZM725.5,233.7l32.1,49.4h-60.3s-2-3-2-3l30.1-46.4ZM699,221.8l-20.7,31.9-20.7-31.9h41.4ZM538.3,311.9h24l17.6,54.2h-18.1c2.5-20.5-5.9-41.5-23.5-54.2ZM314.5,583.9h141.7c13.2,0,24-10.7,24-24v-109h200.2v209.4H90.3v-209.4h200.2v109c0,13.2,10.7,24,24,24ZM451.3,394.9h0s0,0,0,0v160.3h-132.1v-160.3h132.1ZM350.5,272.2l-9.2-9.2h22.9l19.4,19.4c-2.6,2.2-5,4.7-7.1,7.3-6.9-8.1-15.8-14.2-26-17.5ZM392.8,320.8c2.6-13.8,14.6-23.9,28.6-23.9s3.6.2,5.4.5c15.8,3,26.2,18.4,23.2,34.2-2.6,13.8-14.6,23.9-28.6,23.9s-3.6-.2-5.5-.5c-15.8-3-26.2-18.4-23.2-34.2ZM448.3,274.8l12.8-12.8s0,0,0,0h22.9l-22.5,22.6c-3.9-3.8-8.4-7-13.3-9.6ZM460.4,233.2h0s-33.5-33.5-33.5-33.5v-22.9l56.4,56.4h-22.9ZM434.6,247.9l-20.8,20.8c-.9.1-1.8.3-2.7.4l-21.2-21.2,22.4-22.4,22.4,22.4ZM398.2,198.9s0,0-.1.1l-34.8,34.8c-.1.1-.2.3-.4.4h-22.9l58.2-58.3v22.9ZM361,321.5c3.2,15.8-7.1,31.3-22.8,34.5-1.9.4-3.9.6-5.8.6-13.8,0-25.8-9.9-28.5-23.5-3.2-15.8,7.1-31.3,22.8-34.5,1.9-.4,3.9-.6,5.8-.6,13.8,0,25.8,9.9,28.5,23.5ZM476.2,366.1c-1.9-7.6-.9-16,3.7-23.1,5.4-8.4,14.6-13.4,24.5-13.4s11,1.6,15.7,4.7c10.8,7,15.5,20,12.5,31.9h-56.4ZM504.3,283.1h0s32.1-49.4,32.1-49.4l30.1,46.4-2,3h-60.3ZM562.9,221.8h41.4l-20.7,31.9-20.7-31.9ZM630.9,233.7l30.1,46.4-2,3h-56.4l-2-3,30.1-46.4ZM304.3,43h162v16.4h-162v-16.4ZM81.4,88.1h607.7v105h-144.9c-9.9,0-19,5-24.4,13.3l-8.9,13.7-80.7-80.7c-4.8-4.8-11.2-7.5-18.1-7.5s-13.2,2.7-18.1,7.5l-90.4,90.5c-4.8,4.8-7.5,11.2-7.5,18.1s2.7,13.2,7.5,18.1l7.4,7.4c-16.6,6.6-28.9,20.4-34,37-8.1-4.2-17.3-6.6-26.8-6.6s-8.5.5-12.6,1.4l-8-77.7c-1.2-11.5-9.6-20.9-20.9-23.3l-69.5-14.8c-1.8-.4-3.6-.6-5.5-.6-7,0-13.6,2.7-18.5,7.7l-34,34V88.1ZM279.2,366.1h-57.6c-1.6-10.9,3-22.2,12.8-28.7,4.8-3.2,10.3-4.8,16-4.8,9.8,0,18.9,4.9,24.3,13.1,4.1,6.3,5.5,13.5,4.5,20.4ZM180.7,345.2l10.7,20.9h-15.1l-57.9-29.5,38.3-38.3,7.7,15.1c2.5,5,7.6,7.8,12.8,7.8s4.4-.5,6.5-1.6c7.1-3.6,9.9-12.3,6.3-19.3l-12-23.4,25.3-25.3,7,68.3c-2.6,2.5-5,5.3-7.1,8.2-4.3-4-10.8-5.1-16.3-2.3-7.1,3.6-9.9,12.3-6.3,19.3ZM102.7,311.7l-7.9-37.1,37.1,7.9-29.2,29.2ZM113.1,366.1h-24.1l8.2-8.2,16,8.2ZM105.2,247.4l16.3-16.3,4.4,20.6-20.6-4.4ZM148.6,220.8l37.1,7.9-29.2,29.2-7.9-37.1ZM67.6,285l4.4,20.6-20.6-4.4,16.3-16.3ZM78.1,336.3l-29.2,29.2-7.9-37.1,37.1,7.9ZM698.9,763.8h-56.6v-18.4h56.6v18.4ZM736.2,716.6H34.5v-321.8h256.1v27.4H85.5c-13.2,0-24,10.7-24,24v219c0,13.2,10.7,24,24,24h599.6c13.2,0,24-10.7,24-24v-219c0-13.2-10.7-24-24-24h-205v-27.4h256.1v321.8ZM709.7,366.1h-99.6l-17.6-54.2h76.9l-8,24.6c-2.4,7.6,1.7,15.7,9.2,18.1,1.5.5,3,.7,4.4.7,6.1,0,11.7-3.9,13.7-9.9l10.9-33.5h54.3l-44.2,54.2Z"/>
  <path d="M67,778.2h39.6c-5.3,0-9.6-4.3-9.6-9.6v-1.3h-39.6v1.3c0,5.3,4.3,9.6,9.6,9.6Z"/>
  <polygon points="97 763.8 71.7 763.8 71.7 745.4 97 745.4 97 731 57.4 731 57.4 767.3 97 767.3 97 763.8"/>
</svg>